<?xml version="1.0" encoding="iso-8859-1"?>
<!-- Uploaded to: SVG Repo, www.svgrepo.com, Generator: SVG Repo Mixer Tools -->
<svg fill="#ffde55" height="800px" width="800px" version="1.1" id="Layer_1" xmlns="http://www.w3.org/2000/svg" xmlns:xlink="http://www.w3.org/1999/xlink" 
	 viewBox="0 0 512.001 512.001" xml:space="preserve">
<g>
	<g>
		<path d="M425.701,268.271c-2.824-2.309-6.337-3.524-9.921-3.524v-21.663V129.378V15.676C415.78,7.019,408.761,0,400.104,0h-96.069
			h-96.068h-96.07c-8.657,0-15.676,7.019-15.676,15.676v113.703v113.707v86.233l-3.12,0.634
			c-7.306,1.484-12.555,7.907-12.555,15.362v151.01c0,8.657,7.019,15.676,15.676,15.676H415.78c8.657,0,15.676-7.019,15.676-15.676
			V280.408C431.456,275.703,429.343,271.248,425.701,268.271z M319.711,31.352h64.718v82.351h-64.718V31.352z M384.43,258.761v12.02
			l-64.718,13.145v-25.165H384.43z M319.711,145.054h64.718v82.355h-64.718V145.054z M223.642,31.352h64.718v82.351h-64.718V31.352z
			 M223.642,145.054h64.718v82.355h-64.718V145.054z M223.642,258.76h64.718v31.532l-64.718,13.146V258.76z M127.573,31.352h64.718
			v82.351h-64.718V31.352z M127.573,145.054h64.718v82.355h-64.718V145.054z M127.573,258.761h64.718v51.046l-64.718,13.145V258.761
			z M400.104,480.648H111.897V358.127l3.105-0.631c0.034-0.007,0.07-0.014,0.104-0.022l95.955-19.489
			c0.042-0.008,0.083-0.017,0.124-0.025l95.955-19.49c0.034-0.007,0.07-0.014,0.104-0.021l92.86-18.86V480.648z"/>
	</g>
</g>
</svg>